<svg xmlns="http://www.w3.org/2000/svg" viewBox="0 0 24 24" width="22" height="22">
  <path fill="hsl(199, 89%, 61%)" fill-rule="evenodd" d="M12 0C5.37 0 0 5.37 0 12c0 5.31 3.438 9.8 8.205 11.385.6.111.82-.261.82-.577 0-.285-.011-1.04-.017-2.04-3.338.726-4.042-1.61-4.042-1.61-.546-1.387-1.333-1.757-1.333-1.757-1.089-.745.083-.73.083-.73 1.205.085 1.84 1.236 1.84 1.236 1.07 1.833 2.809 1.303 3.495.997.107-.775.418-1.303.76-1.603-2.665-.304-5.466-1.333-5.466-5.931 0-1.311.469-2.382 1.236-3.221-.124-.303-.536-1.524.117-3.176 0 0 1.008-.322 3.3 1.23a11.48 11.48 0 0 1 3-.404c1.02.005 2.045.138 3 .404 2.29-1.552 3.296-1.23 3.296-1.23.655 1.652.243 2.873.119 3.176.77.839 1.235 1.91 1.235 3.221 0 4.61-2.806 5.624-5.479 5.921.43.372.823 1.102.823 2.222 0 1.606-.015 2.902-.015 3.293 0 .32.216.694.825.576C20.565 21.796 24 17.307 24 12c0-6.63-5.37-12-12-12Z"/>
</svg>
